<?xml version="1.0" standalone="no"?>
<!DOCTYPE svg PUBLIC "-//W3C//DTD SVG 20010904//EN"
 "http://www.w3.org/TR/2001/REC-SVG-20010904/DTD/svg10.dtd">
<svg version="1.0" xmlns="http://www.w3.org/2000/svg"
 width="700.000000pt" height="700.000000pt" viewBox="0 0 700.000000 700.000000"
 preserveAspectRatio="xMidYMid meet">
<metadata>
Created by potrace 1.14, written by Peter Selinger 2001-2017
</metadata>
<g transform="translate(0.000000,700.000000) scale(0.100000,-0.100000)"
fill="#000000" stroke="none">
<path d="M5650 6969 c-30 -17 -121 -65 -203 -107 -81 -42 -178 -93 -215 -112
-123 -65 -366 -193 -440 -231 -68 -36 -78 -38 -165 -38 -98 -1 -169 -15 -255
-50 -52 -21 -53 -21 -47 -2 6 19 -2 19 -260 19 l-265 0 0 -29 0 -29 -592 -1
c-326 -1 -615 -3 -643 -4 -91 -5 -210 -16 -225 -20 -8 -2 -34 -7 -57 -10 -95
-11 -322 -70 -417 -108 -42 -17 -195 -92 -231 -114 -57 -34 -170 -124 -234
-186 -66 -64 -180 -211 -218 -282 -11 -22 -30 -56 -40 -75 -56 -102 -154 -387
-170 -495 -2 -16 -8 -46 -13 -65 -5 -19 -12 -55 -15 -80 -3 -25 -8 -52 -10
-60 -19 -73 -28 -625 -12 -745 63 -466 294 -803 684 -999 74 -36 185 -79 478
-181 105 -37 240 -84 300 -105 165 -58 294 -103 460 -160 83 -29 159 -56 170
-61 11 -4 74 -27 140 -49 66 -23 163 -57 215 -75 52 -19 219 -77 370 -130 371
-129 359 -124 521 -211 34 -18 120 -100 146 -139 50 -75 59 -169 33 -339 -43
-282 -145 -454 -320 -539 -110 -54 -185 -70 -330 -71 -104 -1 -137 3 -195 22
-56 18 -268 67 -425 99 -14 3 -29 6 -35 7 -5 2 -28 6 -50 11 -35 7 -74 26
-173 86 -15 9 -101 61 -192 115 -204 123 -309 174 -425 209 -49 15 -96 29
-102 31 -8 2 -13 20 -13 41 0 43 -28 96 -61 113 -12 7 -38 13 -58 15 -50 3
-61 38 -54 173 l6 103 -165 -1 -166 -2 3 -66 c1 -37 5 -75 10 -85 6 -14 2 -54
-10 -99 -2 -5 -3 -12 -4 -18 0 -5 -16 -10 -33 -10 -18 0 -48 -9 -66 -20 -34
-21 -67 -82 -58 -106 4 -9 -2 -14 -17 -14 -40 0 -207 -50 -298 -90 -78 -34
-168 -81 -374 -197 -123 -69 -261 -131 -472 -213 -60 -23 -92 -43 -117 -70
-41 -46 -52 -83 -60 -205 -5 -75 -16 -145 -41 -255 -15 -64 -96 -441 -100
-462 -3 -15 -9 -37 -14 -50 -5 -13 -9 -27 -9 -33 -1 -16 -13 -78 -18 -98 -5
-17 85 -18 2133 -14 1176 2 2149 6 2163 9 14 3 48 9 75 12 28 4 57 9 65 11 8
2 31 7 50 10 191 32 440 136 605 253 68 49 215 187 280 264 68 80 173 257 234
396 85 193 160 501 187 767 10 95 12 403 3 483 -12 109 -23 174 -45 252 -101
363 -345 639 -741 835 -129 64 -213 97 -438 176 -93 33 -188 67 -210 75 -22 9
-60 23 -85 31 -39 13 -164 57 -470 165 -47 16 -114 40 -150 53 -36 13 -135 48
-220 78 -931 329 -929 328 -1015 387 -142 98 -184 210 -156 420 20 150 22 164
43 245 52 200 152 316 308 356 19 5 44 13 55 16 11 4 269 8 573 10 l552 4 0
-28 0 -29 260 1 c200 0 263 3 269 13 6 10 17 8 53 -8 72 -31 157 -47 248 -45
75 2 91 -1 135 -25 28 -15 115 -61 195 -103 228 -118 369 -192 481 -251 57
-31 141 -75 185 -98 l82 -41 83 53 c46 30 134 86 194 125 154 101 387 253 405
265 8 6 76 49 150 98 289 187 413 268 432 282 18 14 -10 16 -303 15 l-324 -1
-170 -88 c-453 -236 -455 -237 -476 -225 -19 10 -500 327 -507 333 -1 2 12 45
29 97 28 83 32 107 31 199 0 87 -5 120 -28 190 -16 47 -28 89 -29 94 0 5 117
86 260 181 l260 172 215 -110 c118 -60 262 -133 320 -163 l106 -54 317 2 318
3 -161 105 c-88 58 -238 156 -333 218 -94 62 -208 136 -252 164 -44 28 -138
90 -210 136 -230 150 -325 212 -328 211 -1 0 -27 -14 -57 -30z m-3947 -5497
c3 -4 8 -34 12 -67 4 -33 8 -71 10 -85 2 -14 7 -50 10 -80 l7 -56 -119 3
c-114 2 -476 11 -558 13 l-40 0 25 20 c110 88 271 177 387 215 101 33 256 55
266 37z m502 -48 c123 -40 276 -126 364 -203 13 -11 27 -21 30 -21 3 0 12 -9
18 -20 12 -19 9 -19 -165 -14 -97 2 -241 6 -320 8 -79 2 -145 6 -148 8 -2 3
-7 25 -10 49 -3 24 -7 54 -9 66 -2 12 -7 58 -10 102 l-7 79 88 -14 c49 -8 125
-26 169 -40z"/>
</g>
</svg>
