<?xml version="1.0" encoding="UTF-8"?>
<svg xmlns="http://www.w3.org/2000/svg" id="Layer_1" data-name="Layer 1" viewBox="0 0 1524 474">
  <defs>
    <style>
      .cls-1 {
        fill: #fdc700;
      }

      .cls-2, .cls-3, .cls-4, .cls-5 {
        fill: #e6b400;
      }

      .cls-3, .cls-5 {
        fill-rule: evenodd;
      }

      .cls-6 {
        fill: #005ba3;
      }

      .cls-6, .cls-4, .cls-5 {
        stroke: #000;
        stroke-miterlimit: 10;
        stroke-width: 3px;
      }
    </style>
  </defs>
  <g>
    <path class="cls-6" d="m440.14,393.63c13.83.33,26.08-3.7,36.74-12.08,10.66-8.38,17.46-19.33,20.39-32.84l54.69-.24c-1.79,17.42-8.1,33.29-18.92,47.61-10.83,14.32-24.7,25.47-41.63,33.45-16.93,7.97-34.59,11.72-52.98,11.23-22.62-.33-41.91-6.18-57.86-17.58-15.95-11.39-27.59-27.14-34.91-47.24-7.32-20.1-9.77-42.52-7.32-67.26l.73-8.54c2.77-25.55,10.21-48.71,22.34-69.46,12.12-20.75,27.79-36.74,47-47.97,19.2-11.23,40.53-16.52,63.96-15.87,28.64.65,51.51,10.13,68.6,28.44s25.63,42.11,25.63,71.41h-54.2c0-15.14-3.7-27.5-11.11-37.11-7.41-9.6-18.11-14.73-32.1-15.38-22.62-.65-40.45,8.95-53.47,28.81-13.02,19.86-20.02,47.85-21,83.98-1.14,43.79,14,66,45.41,66.65Z"/>
    <path class="cls-6" d="m700.88,440.75c-22.95-.49-42.85-6.26-59.69-17.33-16.85-11.07-29.3-26.2-37.35-45.41-8.06-19.2-11.11-40.61-9.16-64.21l.73-10.01c2.93-26.86,10.78-50.98,23.56-72.39,12.78-21.4,28.69-37.64,47.73-48.71,19.04-11.07,39.71-16.36,62.01-15.87,33.04.65,57.82,12.96,74.34,36.92,16.52,23.96,22.74,55.18,18.68,93.66l-3.42,25.43h-166.26c-1.46,20.92,2.77,37.79,12.7,50.61,9.93,12.81,23.6,19.38,41.02,19.71,24.9.82,47.85-10.01,68.85-32.47l29.3,30.76c-11.07,15.79-25.63,28.04-43.7,36.74s-37.84,12.9-59.33,12.57Zm24.66-226.56c-30.6-.98-53.55,20.67-68.85,64.94l109.62.24.98-5.13c1.14-7.48,1.22-14.81.24-21.97-1.79-11.55-6.35-20.67-13.67-27.34-7.32-6.67-16.77-10.25-28.32-10.74Z"/>
    <path class="cls-6" d="m943.31,171.47l-5.86,31.01c22.62-24.41,48.74-36.29,78.37-35.64,24.74.49,43.05,9.32,54.93,26.49,11.88,17.17,16.27,41.14,13.18,71.9l-28.56,170.65h-57.86l28.81-171.39c.81-7,.89-13.51.24-19.53-2.12-19.37-13.67-29.3-34.67-29.78-21.97-.32-41.26,10.5-57.86,32.47l-32.96,188.23h-57.86l45.65-264.16,54.44-.24Z"/>
    <path class="cls-6" d="m1177.69,435.87h-57.86l45.9-264.16h57.86l-45.9,264.16Z"/>
    <path class="cls-6" d="m1357.62,393.63c13.83.33,26.08-3.7,36.74-12.08,10.66-8.38,17.46-19.33,20.39-32.84l54.69-.24c-1.79,17.42-8.1,33.29-18.92,47.61-10.83,14.32-24.7,25.47-41.63,33.45-16.93,7.97-34.59,11.72-52.98,11.23-22.62-.33-41.91-6.18-57.86-17.58-15.95-11.39-27.59-27.14-34.91-47.24-7.32-20.1-9.77-42.52-7.32-67.26l.73-8.54c2.77-25.55,10.21-48.71,22.34-69.46,12.12-20.75,27.79-36.74,47-47.97,19.2-11.23,40.53-16.52,63.96-15.87,28.64.65,51.51,10.13,68.6,28.44s25.63,42.11,25.63,71.41h-54.2c0-15.14-3.7-27.5-11.11-37.11-7.41-9.6-18.11-14.73-32.1-15.38-22.62-.65-40.45,8.95-53.47,28.81-13.02,19.86-20.02,47.85-21,83.98-1.14,43.79,14,66,45.41,66.65Z"/>
  </g>
  <path class="cls-6" d="m290.23,296.47c-4.23-55.18-28.48-84.72-80.84-119.19-28.36-19.29-50.18-33.25-49.78-55.17.34-18.68,12.71-38.25,48.74-38.25,14.62,0,28.19,1.75,41.33,6.06.44-4.17,3.83-7.94,5.26-11.81,2.12-5.75,3.35-12.04,4.34-18.09.84-5.14,1.47-11.93,3.72-17.55-13.48-4.26-30.67-7.11-50.82-7.11-68.69,0-103.32,44.18-106.16,90.35-3.07,49.89,20.68,76.08,68.7,109.45,31.08,22.36,49.59,39.62,50.49,69.37.9,29.65-14.92,61.97-58.69,61.97-32.97,0-61,1-88,1l-47,74c37,0,80.85.07,127.05.07,93.6,0,136.71-72.05,131.68-145.1Z"/>
  <g>
    <g>
      <polyline class="cls-5" points="284.36 46.58 334.19 34.1 376.98 79.59 354.41 74.12 329.9 52.95 278.32 71.49"/>
      <polyline class="cls-5" points="272.19 96.29 310.76 130.22 369.63 109.4 347.07 103.93 315.58 111.5 278.23 71.38"/>
    </g>
    <circle class="cls-4" cx="275.56" cy="70.78" r="26.72"/>
    <rect class="cls-4" x="241.34" y="39.8" width="20.47" height="50.03" transform="translate(22.38 -57.5) rotate(13.64)"/>
  </g>
  <path class="cls-1" d="m230.16,61.34c-3.64-.41-7.42-.71-11.25-.88l.03-2.31c3.87.18,7.69.48,11.37.89l-.16,2.3Zm-104.16,336.01c-4.77-1.14-9.53-2.52-14.15-4.11l.9-3.68c4.54,1.56,9.21,2.91,13.9,4.03l-.65,3.76Zm99.8-15.61l-1.56-3.22c4.02-3.16,7.76-6.73,11.09-10.59l1.97,2.8c-3.46,4.02-7.33,7.73-11.5,11.02Zm32.07-56.72l-2.73-.9c.89-5.38,1.36-10.95,1.42-16.57l2.75.27c-.05,5.83-.54,11.62-1.45,17.2Zm-11.29-64.05c-2.21-4.32-4.86-8.58-7.89-12.67l1.94-1.98c3.14,4.23,5.9,8.64,8.2,13.12l-2.24,1.54Zm-38.02-41.99c-3.36-2.59-6.91-5.21-10.85-8l1.31-2.5c3.96,2.8,7.54,5.43,10.92,8.03l-1.39,2.47Zm-42.93-31.36c-3.68-3.02-6.89-5.86-9.83-8.69l1.64-2.14c2.89,2.77,6.05,5.56,9.67,8.53l-1.49,2.31Zm-31.35-41.46c-1.26-4.16-2.08-8.55-2.46-13.04l2.4-.35c.37,4.29,1.17,8.49,2.37,12.46l-2.31.93Zm6.66-49.61l-2.05-1.08c1.88-3.72,4.11-7.25,6.63-10.49l1.78,1.49c-2.42,3.12-4.56,6.51-6.36,10.09Zm33.83-30.22l-.8-2.18c3.47-1.36,7.17-2.51,10.99-3.42l.52,2.26c-3.73.89-7.33,2.02-10.71,3.34Z"/>
  <g>
    <path class="cls-3" d="m105.36,366.49l-2.55.04c.3-.02.59-.04.89-.05.65-.02,1.19-.02,1.66.01Z"/>
    <g>
      <g>
        <path class="cls-3" d="m87.11,423.71c-.64-8.36-7.71-14.91-16.1-14.91h-.23c-7.67.1-14.25,5.64-15.66,13.17l-.24,1.3-16.78-1c-2.51-.14-4.91-1.25-6.43-2.95-1.23-1.38-1.82-3.05-1.71-4.81l1.28-21.59c.27-4.65,4.45-6.61,7.58-7.69,12.19-4.17,20.9-9.07,28.58-13.39,9.68-5.44,18.08-10.17,30.25-11.8l-.02-1.9c-.01-1.27.47-2.47,1.35-3.38.89-.91,2.08-1.42,3.35-1.44l2.76-.04,1.13-4.84h.21s-.05-4.58-.05-4.58h-.67s-.06-4.37-.06-4.37l13.33-.18.06,4.38h-.67s.05,4.59.05,4.59h.24s1.17,4.81,1.17,4.81c0,0,2.85-.04,2.85-.04,2.67,0,4.79,2.11,4.81,4.7l.05,3.66c1.11.2,2.24.41,3.4.63,5.49,1.07,13.55,4.93,16.45,6.66l23.93,14.38c4,.77,7.47,1.56,10.84,2.32l1.2.27c1.98.45,3.91.84,5.75,1.22,14.56,3,26.06,5.37,26.33,25.58l.04,3.13c.05,4.27-3.56,7.81-8.06,7.88l-15.39.2-.16-1.34c-.98-8.08-7.88-14.18-16.04-14.18h-.22c-8.28.12-15.1,6.4-15.87,14.62l-.13,1.34-72.42.97-.11-1.41Zm30.09-55.47c-1.19,0-1.41.23-1.41.24s-.19.23-.06,1.34l1.61,14q.25,2.17,1.89,2.2s34.6.91,34.6.91c.53,0,.6-.19.63-.25.11-.28.02-.93-.69-1.6-11.17-10.46-22.09-15.64-35.43-16.79-.41-.03-.79-.05-1.14-.05Zm-12.69-.28c-.24,0-.49,0-.77.01-.28,0-.55.03-.83.05-13.97.77-25.82,8.47-33.3,14.79-1.18,1-1.27,1.64-1.25,1.72.01.04.3.31,1.16.33l36.51.86c.17,0,.34,0,.5,0,1.41,0,1.81-.21,1.92-.34.12-.14.22-.58.12-1.41l-1.62-13.34c-.3-2.51-.31-2.55-1.59-2.65h-.18l-.07-.02c-.18,0-.38-.01-.59-.01Z"/>
        <path d="m117.5,340.84l.02,1.38h-.66s.08,7.59.08,7.59h.55s1.17,4.8,1.17,4.8l4.04-.05s.04,0,.05,0c1.77,0,3.23,1.43,3.24,3.21l.07,4.92c1.48.25,3.01.53,4.59.84,5.29,1.03,13.28,4.87,15.97,6.48l24.16,14.52c4.55.87,8.36,1.75,12.26,2.63,17.87,4.02,30.63,3.97,30.92,25.36l.04,3.13c.04,3.43-2.93,6.3-6.58,6.36l-14.04.18c-1.06-8.76-8.54-15.5-17.53-15.5-.08,0-.16,0-.24,0-9.11.13-16.51,7.11-17.34,15.98l-69.66.93c-.69-9.13-8.33-16.29-17.6-16.29-.08,0-.17,0-.25,0-8.55.11-15.6,6.29-17.11,14.39l-15.46-.92c-3.64-.21-6.94-2.73-6.73-6.18l1.28-21.59c.2-3.45,3.14-5.18,6.57-6.36,28.08-9.61,37.4-22.76,59.86-25.28l-.04-3.24c-.02-1.8,1.42-3.28,3.22-3.3l3.63-.05h.31l1.13-4.85h.53s-.08-7.58-.08-7.58h-.68s-.02-1.37-.02-1.37l10.33-.14m-10.97,46.4c2.43,0,3.88-.52,3.53-3.43l-1.62-13.34c-.32-2.65-.44-3.77-3.02-3.97-.02,0-.03,0-.06-.01-.26-.02-.54-.02-.85-.02-.25,0-.52,0-.81.01-.3.01-.59.03-.89.05-12.44.69-24.35,6.85-34.17,15.14-2.92,2.47-1.97,4.62.84,4.7l36.52.86c.18,0,.36,0,.53,0m47.34,1.19c2.35,0,2.89-2.6.93-4.44-10.92-10.23-22.19-15.97-36.33-17.19-.46-.04-.89-.06-1.27-.06-2.51,0-3.24.88-2.96,3.25l1.61,14c.29,2.47.56,3.47,3.35,3.53l34.59.91s.05,0,.08,0m-33.41-50.63l-3,.04-10.33.14-3,.04.04,3,.02,1.38.04,3h.67s.02,2.02.02,2.02l-.43,1.83-.6,2.56-1.59.02c-1.67.02-3.23.69-4.4,1.89-1.17,1.2-1.8,2.77-1.78,4.45v.58c-11.74,1.82-20,6.46-29.47,11.79-7.62,4.29-16.26,9.15-28.33,13.28-2.04.7-8.23,2.83-8.59,9.02l-1.28,21.59c-.13,2.14.61,4.23,2.09,5.9,1.8,2.03,4.52,3.29,7.47,3.46l15.45.92,2.64.16.49-2.6c1.27-6.83,7.24-11.85,14.2-11.94h.21c7.62,0,14.03,5.94,14.61,13.52l.21,2.81,2.82-.04,69.66-.93,2.7-.04.25-2.68c.7-7.45,6.89-13.15,14.4-13.26h.19c7.41,0,13.67,5.53,14.55,12.86l.32,2.67,2.69-.03,14.04-.18c5.33-.09,9.6-4.3,9.54-9.39l-.04-3.13c-.29-21.42-12.91-24.02-27.53-27.03-1.85-.38-3.76-.78-5.73-1.22l-1.2-.27c-3.31-.75-6.72-1.52-10.63-2.28l-23.7-14.25c-2.98-1.78-11.26-5.75-16.94-6.85-.74-.15-1.47-.28-2.2-.42l-.03-2.44c-.02-3.39-2.82-6.17-6.23-6.17h-.1s-1.64.02-1.64.02l-.61-2.49-.49-2.03-.02-1.88h.67s-.04-3.01-.04-3.01l-.02-1.38-.04-3h0Zm-49.22,45.61c7.33-6.06,18.61-13.16,31.74-13.89h.09c.25-.02.49-.04.74-.05.25,0,.49-.01.71-.01.18,0,.35,0,.51.01.07,0,.14.01.21.02.02,0,.03,0,.05,0,.06.36.12.86.17,1.28l1.63,13.39s0,.03,0,.05c-.15,0-.33.01-.55.01-.15,0-.3,0-.46,0l-34.84-.82h0Zm47.71,1.1c-.05-.32-.1-.7-.12-.87l-1.6-13.9c.28,0,.62.02.99.05,12.63,1.09,23.05,5.91,33.66,15.59l-32.6-.86c-.13,0-.24,0-.33-.01h0Z"/>
      </g>
      <g>
        <path class="cls-3" d="m71,440.39c-8.39,0-15.3-6.83-15.42-15.21-.02-1.2.11-2.4.37-3.57,1.56-7.01,7.67-11.96,14.85-12.06h.21c7.95,0,14.54,5.96,15.34,13.87.05.43.07.89.08,1.34.11,8.5-6.71,15.51-15.21,15.63h-.21Zm-.07-21.14c-2.34.03-4.4,1.46-5.25,3.64-.27.69-.4,1.41-.39,2.16.04,3.11,2.61,5.64,5.72,5.64,1.61-.02,3.03-.64,4.1-1.73,1.07-1.09,1.64-2.54,1.62-4.06,0-.47-.07-.92-.18-1.35-.65-2.53-2.93-4.29-5.54-4.29v-1.5l-.08,1.5Z"/>
        <path d="m71.01,411.05c7.19,0,13.14,5.47,13.84,12.52.04.4.06.8.07,1.22.1,7.69-6.04,14-13.73,14.11-.06,0-.13,0-.19,0-7.6,0-13.81-6.11-13.92-13.73-.01-1.11.1-2.19.33-3.22,1.37-6.16,6.83-10.8,13.4-10.88.06,0,.13,0,.19,0m0,21.14s.07,0,.1,0c3.99-.05,7.17-3.33,7.12-7.31,0-.59-.09-1.17-.23-1.71-.81-3.12-3.63-5.41-6.99-5.41-.03,0-.07,0-.1,0-3.03.04-5.59,1.93-6.63,4.59-.33.84-.5,1.76-.49,2.72.05,3.95,3.27,7.12,7.22,7.12m0-24.14h-.23c-7.88.11-14.58,5.55-16.29,13.23-.29,1.29-.42,2.61-.4,3.92.12,9.2,7.71,16.69,16.92,16.69h.23c4.52-.06,8.74-1.88,11.89-5.12,3.15-3.24,4.85-7.51,4.79-12.03,0-.55-.04-1.03-.08-1.5-.87-8.65-8.1-15.2-16.83-15.2h0Zm0,21.14c-2.29,0-4.18-1.87-4.22-4.16,0-.55.09-1.09.29-1.59.63-1.61,2.15-2.66,3.88-2.69h.06c1.92,0,3.6,1.3,4.08,3.16.08.32.13.66.13,1,.03,2.33-1.84,4.24-4.16,4.27h-.06Z"/>
      </g>
      <g>
        <path class="cls-3" d="m175.84,439.77c-8.39,0-15.3-6.82-15.42-15.21,0-.69.03-1.41.12-2.12.94-7.6,7.44-13.41,15.1-13.51h.21c7.56,0,14.11,5.63,15.24,13.09.11.71.16,1.42.17,2.12.11,8.5-6.71,15.51-15.21,15.62h-.21Zm-.07-21.13c-2.57.03-4.81,1.79-5.46,4.27-.13.49-.19,1.01-.18,1.52.04,3.11,2.61,5.64,5.72,5.64,3.23-.04,5.76-2.64,5.72-5.79,0-.52-.08-1.03-.22-1.52-.7-2.43-2.96-4.12-5.49-4.12v-1.5l-.08,1.5Z"/>
        <path d="m175.85,410.43c6.95,0,12.74,5.11,13.76,11.82.09.63.15,1.27.16,1.92.1,7.69-6.04,14-13.73,14.1-.06,0-.13,0-.19,0-7.6,0-13.81-6.11-13.92-13.73,0-.65.03-1.29.11-1.92.84-6.79,6.59-12.09,13.63-12.19.06,0,.13,0,.19,0m0,21.14s.07,0,.1,0c3.99-.05,7.17-3.33,7.12-7.31,0-.66-.11-1.3-.28-1.91-.87-3.01-3.65-5.21-6.93-5.21-.03,0-.07,0-.1,0-3.33.04-6.09,2.33-6.89,5.39-.16.61-.24,1.26-.23,1.92.05,3.95,3.28,7.12,7.22,7.12m0-24.14h-.23c-8.41.11-15.53,6.49-16.56,14.82-.1.79-.14,1.57-.13,2.33.12,9.2,7.71,16.69,16.92,16.69h.23c9.33-.13,16.81-7.82,16.69-17.14-.01-.76-.07-1.54-.19-2.31-1.24-8.2-8.43-14.38-16.72-14.38h0Zm0,21.14c-2.3,0-4.19-1.87-4.22-4.16,0-.38.04-.76.13-1.12.48-1.83,2.14-3.12,4.03-3.15h.06c1.87,0,3.53,1.25,4.05,3.04.1.36.16.74.16,1.12.02,1.13-.41,2.19-1.2,3-.79.81-1.84,1.26-2.97,1.28h-.06Z"/>
      </g>
    </g>
  </g>
  <g>
    <g>
      <path d="m1171.98,57c6.94,0,13.76,1.53,18.44,4.48,7.52,4.74,7.62,11.87-.25,16.88l.44.3c4.11,2.83,10.01,4.67,16.53,5.11,1.02.07,2.03.1,3.03.1,5.42,0,10.46-1.02,14.39-2.92l.5-.25c-7.05-6.05-5.69-13.13,2.74-16.92,3.84-1.73,8.74-2.57,13.88-2.57,7.1,0,14.68,1.6,20.64,4.69,10.89,5.65,13.04,14.46,3.79,19.56-4.02,2.21-9.5,3.32-15.37,3.32-1.1,0-2.21-.04-3.33-.12-5.48-.38-11.01-1.68-15.75-3.85l-.5.25c-4.67,2.35-7.3,5.82-7.33,9.85-.03,4.18,2.74,8.47,7.93,12.03l.57.39c3.95-1.45,8.47-2.15,13.17-2.15,8.83,0,18.3,2.49,25.83,7.23,13.97,8.8,17.38,22.79,6.01,31.04-5.02,3.63-11.97,5.42-19.45,5.42-1.41,0-2.84-.06-4.28-.19-9.02-.8-18.07-4.06-24.86-9.42-11.35-8.97-12.37-20.67-3.75-27.83l-.57-.41c-5.16-3.69-11.91-5.97-19.11-6.51-1.1-.08-2.2-.12-3.28-.12-5.99,0-11.71,1.25-16.46,3.64l-.62.31c7.1,8.31,4.1,19.58-8.32,26.43-6.17,3.4-13.54,5.08-20.77,5.08-1.36,0-2.72-.06-4.07-.18-8.44-.75-16.03-3.8-20.68-8.82-8.77-9.49-3.5-22.07,10.46-28.34,5.57-2.5,11.93-3.73,18.16-3.73,6.9,0,13.63,1.51,18.91,4.49l.61-.3c5.57-2.7,8.97-6.48,9.65-10.57.67-3.93-1.27-7.68-5.35-10.6l-.44-.31c-3.95,1.19-8.23,1.77-12.44,1.77-7.8,0-15.32-1.97-19.92-5.62-7.59-5.99-4.2-14.09,6.71-18.19,4.39-1.65,9.48-2.45,14.51-2.45m-1.2,24.44c3.48,0,7.03-.45,10.33-1.38l-1.34-.96c-2.79.73-5.85,1.11-8.93,1.11-.82,0-1.65-.03-2.47-.08-.49-.04-.99-.08-1.48-.13-4.82-.54-9.01-2.02-11.77-4.14-3-2.31-4.03-5.11-2.97-7.88,1.02-2.69,3.89-5.02,8.05-6.61,3.46-1.32,7.53-2.02,11.69-2.02.75,0,1.5.02,2.25.07,4.94.3,9.37,1.57,12.52,3.59,2.89,1.86,4.45,4.23,4.36,6.71-.09,2.27-1.58,4.5-4.23,6.32l1.35.93c6.6-4.35,6.51-10.47.05-14.58-4.12-2.63-10.14-3.99-16.27-3.99-4.45,0-8.95.72-12.83,2.19-9.58,3.63-12.45,10.76-5.72,15.99,4.05,3.15,10.61,4.86,17.41,4.86m.21-2.99c2.29,0,4.61-.25,6.8-.77l-7.2-5.14-.83.34c-.83.35-1.81.53-2.82.53-.18,0-.37,0-.55-.02-1.2-.08-2.24-.41-2.94-.92-.69-.51-.96-1.14-.76-1.78.2-.63.85-1.19,1.82-1.58l8.5-3.41c.79-.32,1.74-.49,2.71-.49.17,0,.34,0,.51.02,1.15.08,2.18.38,2.89.85.72.48,1.03,1.09.89,1.7-.15.62-.74,1.17-1.68,1.56l-.81.33,7.27,5c4.42-3.26,4.24-7.72-.39-10.73-2.67-1.74-6.44-2.82-10.66-3.08-.65-.04-1.3-.06-1.94-.06-3.54,0-7,.6-9.94,1.73-3.53,1.36-5.95,3.35-6.78,5.64-.86,2.34.05,4.71,2.6,6.65,3.09,2.35,8.12,3.63,13.31,3.63m56.36,1.14l1.55-.76c-2.37-2.18-3.48-4.59-3.17-6.88.34-2.49,2.35-4.67,5.61-6.16,3.02-1.39,6.9-2.11,11.14-2.11.78,0,1.57.02,2.37.07,5.17.32,10.21,1.64,14.23,3.76,4.11,2.17,6.74,4.95,7.33,7.84.61,2.98-1,5.72-4.61,7.67-3.09,1.66-7.37,2.56-12.1,2.56-.34,0-.68,0-1.03-.01-.53-.01-1.05-.04-1.57-.07-4.09-.28-8.12-1.2-11.59-2.64l-1.55.79c4.94,2.14,10.71,3.23,16.15,3.23,5.08,0,9.87-.95,13.42-2.88,8.14-4.43,6.4-12.15-3.13-17.14-5.25-2.75-11.95-4.18-18.23-4.18-4.55,0-8.88.75-12.27,2.29-7.27,3.3-8.44,9.39-2.55,14.62m3.82-1.86l8.34-4.06-.77-.44c-.89-.52-1.4-1.15-1.44-1.79-.04-.64.39-1.2,1.21-1.6.69-.33,1.58-.5,2.56-.5.19,0,.38,0,.57.02,1.2.07,2.36.39,3.25.89l8.25,4.59c.94.52,1.52,1.18,1.62,1.85.09.68-.3,1.28-1.13,1.71-.7.36-1.64.55-2.68.55-.18,0-.37,0-.56-.02-1.26-.08-2.48-.43-3.42-.97l-.81-.46-8.36,4.21c2.81,1.07,5.96,1.72,9.07,1.93.75.05,1.5.08,2.23.08,3.87,0,7.51-.71,10.18-2.13,3.06-1.63,4.46-3.93,3.98-6.44-.46-2.46-2.66-4.82-6.14-6.67-3.41-1.82-7.7-2.96-12.11-3.23-.68-.04-1.34-.06-2-.06-3.63,0-6.95.63-9.52,1.81-5.25,2.44-6.23,6.87-2.32,10.73m-64.1-5.97c.32,0,.63-.06.89-.17l2.05-.84,1.22-.49,2.09-.86,1.19-.49,2-.82c.3-.12.5-.3.55-.5.05-.2-.05-.39-.28-.55-.23-.16-.57-.26-.94-.28-.05,0-.11,0-.16,0-.32,0-.63.05-.89.15l-8.53,3.46c-.32.13-.52.31-.59.52-.06.2.03.41.26.57.22.16.56.27.95.29.06,0,.13,0,.19,0m83.26,5.46c.35,0,.66-.06.89-.17.27-.14.4-.34.37-.55-.02-.22-.21-.44-.51-.61l-8.25-4.64c-.29-.16-.66-.26-1.05-.29-.06,0-.11,0-.17,0-.33,0-.63.05-.86.16-.26.13-.4.31-.38.52.01.21.18.41.47.58l1.92,1.09,1.15.65,2.01,1.15,1.17.67,1.99,1.12c.3.18.69.29,1.1.32.05,0,.1,0,.15,0m-43.19,23.73c6.06,0,10.88-2.77,11-6.45.13-3.82-4.94-7.2-11.27-7.64-.46-.03-.91-.05-1.36-.05-5.73,0-10.52,2.5-11.01,6-.56,3.9,4.42,7.58,11.14,8.08.51.04,1.01.06,1.5.06m-51.06,36.02c6.24,0,12.67-1.44,18.15-4.41,10.73-5.83,13.59-15.47,7.85-22.76l-1.98,1c2.19,2.99,2.89,6.48,1.89,9.95-1.15,3.99-4.46,7.67-9.38,10.32-4.86,2.62-10.62,3.91-16.27,3.91-1.07,0-2.14-.05-3.2-.14-6.59-.57-12.57-2.92-16.3-6.81-3.5-3.66-4.46-8.07-2.82-12.39,1.59-4.16,5.42-7.76,10.74-10.2,4.37-1.99,9.49-3.07,14.61-3.07.38,0,.75,0,1.12.02,4.93.14,9.59,1.28,13.34,3.24l1.96-.96c-4.59-2.49-10.35-3.75-16.26-3.75-5.51,0-11.14,1.1-16.07,3.33-12.27,5.58-16.72,16.66-8.92,24.92,4.83,5.11,13,7.8,21.54,7.8m.48-4.79c4.71,0,9.56-1.06,13.71-3.27,7.78-4.13,10.37-11.1,6.86-16.61l-11.54,5.82.74.66c.88.79,1.23,1.77.99,2.77-.23,1.01-1.04,1.92-2.28,2.56-1.05.54-2.3.83-3.58.83-.23,0-.46,0-.68-.03-1.5-.13-2.8-.65-3.66-1.46l-7.47-7.06c-.81-.76-1.08-1.71-.77-2.65.3-.94,1.13-1.77,2.34-2.35,1.03-.48,2.22-.74,3.42-.74.21,0,.43,0,.64.02,1.42.12,2.65.58,3.47,1.31l.7.64,11.43-5.56c-2.74-1.33-5.96-2.12-9.3-2.38-.79-.06-1.59-.09-2.39-.09-4.29,0-8.69.86-12.5,2.63-4.52,2.09-7.74,5.17-9.03,8.72-1.34,3.66-.47,7.37,2.53,10.43,3.72,3.81,9.91,5.81,16.37,5.81m80.3-21.73c2.93-.97,6.27-1.47,9.77-1.47,1.53,0,3.08.09,4.65.29,5.8.7,11.5,2.68,16.1,5.64,5.26,3.38,8.72,7.73,9.66,12.31.97,4.75-.89,9.14-5.36,12.28-3.97,2.79-9.43,4.17-15.28,4.17-1.1,0-2.21-.05-3.33-.14-7.04-.61-14.14-3.12-19.54-7.27-4.55-3.5-7.26-7.76-7.72-11.94-.39-3.63.94-7.01,3.7-9.65l-1.84-1.31c-7.11,6.36-5.92,16.44,3.94,24.12,7.01,5.45,16.52,8.33,25.35,8.33,6.44,0,12.52-1.53,16.99-4.72,10.03-7.14,7.26-19.39-4.96-27.18-6.63-4.23-15.01-6.46-22.82-6.46-3.96,0-7.78.57-11.16,1.75l1.85,1.26m13.65,9.38l.86-.52c.84-.52,1.95-.8,3.19-.8.23,0,.46,0,.69.03,1.51.12,2.98.62,4.15,1.4,1.18.79,1.91,1.78,2.06,2.79.15,1.02-.32,1.94-1.31,2.58l-9.17,5.92c-.89.58-2.07.88-3.38.88-.24,0-.48,0-.72-.03-1.59-.13-3.11-.68-4.28-1.54-1.17-.86-1.84-1.91-1.9-2.97-.07-1.05.48-1.99,1.52-2.63l.9-.55-10.85-7.75c-4.57,4.96-3.17,12.36,4.06,17.85,4.56,3.46,10.54,5.54,16.44,6.04.94.08,1.88.12,2.81.12,4.89,0,9.46-1.13,12.82-3.46,3.79-2.61,5.41-6.29,4.66-10.29-.74-3.88-3.63-7.59-8.07-10.48-5.09-3.32-11.67-5.08-17.79-5.08-2.67,0-5.24.34-7.57,1.02l10.88,7.47m-88.84,2.5c.41,0,.81-.09,1.15-.27.4-.2.67-.49.75-.82.08-.32-.03-.64-.31-.9l-1.83-1.67-1.07-.98-1.85-1.68-1.05-.96-1.75-1.6c-.27-.24-.67-.39-1.13-.43-.06,0-.13,0-.19,0-.4,0-.8.08-1.14.25-.39.19-.66.46-.75.77-.1.3,0,.61.26.85l7.51,6.97c.28.26.7.43,1.18.47.07,0,.15,0,.22,0m85.22,7.02c.42,0,.79-.09,1.08-.28l9.16-5.82c.33-.2.48-.5.44-.83-.04-.33-.28-.65-.66-.91-.38-.26-.86-.42-1.36-.46-.08,0-.15,0-.23,0-.4,0-.76.09-1.03.26l-2.13,1.34-1.28.8-2.24,1.4-1.3.81-2.21,1.38c-.34.21-.51.52-.48.86.02.34.25.69.62.96.38.27.87.45,1.39.49.08,0,.16,0,.23,0m-74.91-75.34v2.35-2.35c-5.58,0-10.96.91-15.56,2.64-7.23,2.72-11.83,7.2-12.63,12.31-.63,4.03,1.19,7.95,5.11,11.05,5.03,3.98,12.97,6.26,21.78,6.26,4.06,0,8.12-.51,11.84-1.48,1.99,1.6,3.96,4.02,3.43,7.12-.49,2.94-3.12,5.82-7.26,8-5.36-2.66-12.02-4.12-18.95-4.12-6.86,0-13.56,1.38-19.39,4-8.81,3.96-14.71,10.34-16.17,17.52-1.13,5.53.56,11.07,4.74,15.6,5.05,5.46,13.08,8.93,22.62,9.77,1.43.13,2.88.19,4.33.19,7.95,0,15.84-1.94,22.22-5.45,7.45-4.11,12.2-9.92,13.37-16.36.72-3.94.02-7.89-1.98-11.45,3.76-1.44,8.04-2.2,12.56-2.2,1.01,0,2.04.04,3.06.12,5.59.42,10.88,1.97,15.19,4.43-2.65,3.25-4.06,7.11-4.01,11.19.08,6.59,3.85,13.16,10.61,18.5,7.09,5.6,16.49,9.17,26.46,10.05,1.52.13,3.05.2,4.55.2,8.34,0,15.87-2.13,21.2-5.99,5.39-3.91,8.25-9.32,8.05-15.24-.25-7.67-5.44-15.24-14.22-20.77-7.77-4.89-17.77-7.69-27.43-7.69-4.58,0-8.85.61-12.69,1.82-3.83-2.8-5.99-6.08-5.97-9.07.02-3.26,2.55-5.45,4.94-6.8,4.65,1.93,9.96,3.14,15.43,3.52,1.18.08,2.38.12,3.54.12,6.62,0,12.44-1.28,16.82-3.69,4.81-2.65,7.43-6.48,7.37-10.78-.07-5.27-4.16-10.4-11.23-14.07-6.16-3.19-14.19-5.02-22.02-5.02-5.76,0-10.99.98-15.11,2.83-5.16,2.32-8.34,5.91-8.94,10.1-.41,2.83.4,5.71,2.3,8.39-2.88.87-6.24,1.34-9.75,1.34-.93,0-1.88-.03-2.83-.1-4.39-.3-8.55-1.3-11.9-2.83,2.37-2.45,3.63-5.27,3.62-8.19,0-4.11-2.51-7.95-7.05-10.81-4.99-3.14-12.29-4.94-20.04-4.94h0Zm-12.02,18.76c-.16-.11-.32-.22-.47-.33-2.17-1.65-1.74-2.84-1.6-3.22.51-1.41,2.39-2.86,5.04-3.88,1.95-.75,4.17-1.24,6.51-1.43l-6.05,2.43c-1.82.73-3.09,1.96-3.56,3.46-.32,1.01-.26,2.04.13,2.98h0Zm22.59-3.27c.17-.32.29-.65.38-1,.15-.65.15-1.3,0-1.92,1.28.88,2.03,1.88,2.06,2.77.01.47-.16.97-.51,1.48l-1.93-1.33h0Zm74.46,9.86c.61-.89.87-1.94.73-3.06v-.02s0-.02,0-.02c-.24-1.62-1.35-3.05-3.14-4.03l-6.44-3.58c2.78.48,5.38,1.33,7.56,2.49,2.61,1.39,4.33,3.1,4.6,4.57.28,1.46-1.17,2.57-2.44,3.24-.27.14-.56.28-.86.41h0Zm-24.95-5.39c-.21-.45-.33-.93-.25-1.41.17-.98,1.18-1.97,2.78-2.75-.23.57-.33,1.19-.29,1.83.02.3.08.69.22,1.13l-2.47,1.2h0Zm-24.92,23.99c-.42,0-.85-.02-1.28-.05-4.13-.31-6.81-1.92-7.85-3.21-.43-.53-.61-1.02-.55-1.45.2-1.4,3.17-3.42,8.05-3.42.38,0,.77.01,1.15.04,5.25.37,8.53,2.94,8.48,4.54-.05,1.48-3.12,3.55-8,3.55h0Zm-50.98,9.79c1-.11,2.02-.16,3.04-.16.72,0,1.45.03,2.16.08.39.03.79.07,1.17.12l-2.65,1.29c-1.05-.68-2.31-1.13-3.72-1.33h0Zm.4,21.43c-5.9,0-11.22-1.84-14.22-4.91-1.51-1.54-3.05-4.05-1.86-7.3,1.01-2.77,3.66-5.27,7.47-7.03.03-.01.05-.02.08-.04-.97.82-1.65,1.82-2.01,2.92-.67,2.03-.08,4.19,1.58,5.75l7.46,7.05c1.35,1.28,3.29,2.08,5.46,2.27.33.03.64.04.94.04,1.77,0,3.48-.4,4.95-1.16,2.04-1.05,3.4-2.67,3.83-4.56.25-1.02.2-2.05-.13-3.02l5.47-2.76c.14.87.09,1.77-.15,2.68-.72,2.73-3.06,5.27-6.58,7.14-3.54,1.89-7.91,2.92-12.3,2.92h0Zm94.1-12.89l-2.84-1.95c2.69.06,5.44.49,8.04,1.24-.12-.01-.25-.03-.37-.04-.31-.02-.62-.04-.93-.04-1.43,0-2.76.27-3.9.78h0Zm-3.06,18.81c1.9,0,3.63-.47,5.01-1.36l9.17-5.92c1.98-1.28,2.97-3.35,2.65-5.54-.24-1.58-1.13-3.07-2.56-4.25.51.28,1.01.58,1.49.89,3.78,2.46,6.18,5.49,6.76,8.53.67,3.59-1.49,5.93-3.41,7.26-2.73,1.89-6.68,2.93-11.12,2.93-.84,0-1.7-.04-2.55-.11-5.52-.47-10.94-2.45-14.88-5.44-3.28-2.49-5.22-5.44-5.48-8.29-.09-1.03.04-2,.4-2.91l5.33,3.81c-.52.93-.76,1.98-.69,3.07.11,1.94,1.22,3.79,3.12,5.19,1.62,1.19,3.68,1.94,5.81,2.11.32.03.65.04.97.04h0Z"/>
      <path class="cls-2" d="m1271.33,112.41c-11.54-7.26-27.62-9.25-39-5.08l-.57-.39c-5.19-3.56-7.96-7.85-7.93-12.03.03-4.03,2.66-7.5,7.33-9.85l.5-.25c4.74,2.17,10.27,3.47,15.75,3.85,7.09.49,13.93-.57,18.7-3.2,9.25-5.1,7.1-13.91-3.79-19.56-10.27-5.32-25.37-6.23-34.52-2.12-8.43,3.79-9.79,10.87-2.74,16.92l-.5.25c-4.65,2.26-10.87,3.27-17.42,2.82-6.52-.44-12.42-2.28-16.53-5.11l-.44-.3c7.87-5.01,7.77-12.14.25-16.88-8.08-5.09-22.51-5.95-32.95-2.03-10.91,4.1-14.3,12.2-6.71,18.19,7.09,5.61,21.08,7.26,32.36,3.85l.44.31c4.08,2.92,6.02,6.67,5.35,10.6-.68,4.09-4.08,7.87-9.65,10.57l-.61.3c-10.06-5.67-25.34-6.03-37.07-.76-13.96,6.27-19.23,18.85-10.46,28.34,4.65,5.02,12.24,8.07,20.68,8.82,8.48.75,17.51-.86,24.84-4.9,12.42-6.85,15.42-18.12,8.32-26.43l.62-.31c5.61-2.83,12.58-4.06,19.74-3.52,7.2.54,13.95,2.82,19.11,6.51l.57.41c-8.62,7.16-7.6,18.86,3.75,27.83,6.79,5.36,15.84,8.62,24.86,9.42,9.07.8,17.76-.91,23.73-5.23,11.37-8.25,7.96-22.24-6.01-31.04Zm-107.76,8.82c-.08.33-.35.62-.75.82-.4.21-.89.3-1.37.26-.48-.04-.9-.21-1.18-.47l-7.51-6.97c-.26-.24-.36-.55-.26-.85.09-.31.36-.58.75-.77.4-.19.87-.27,1.33-.24.46.04.86.19,1.13.43l1.75,1.6,1.05.96,1.85,1.68,1.07.98,1.83,1.67c.28.26.39.58.31.9Zm-4.12-8.62l-.7-.64c-.82-.73-2.05-1.19-3.47-1.31-1.41-.11-2.85.15-4.06.72-1.21.58-2.04,1.41-2.34,2.35-.31.94-.04,1.89.77,2.65l7.47,7.06c.86.81,2.16,1.33,3.66,1.46,1.51.12,3.02-.16,4.26-.8s2.05-1.55,2.28-2.56c.24-1-.11-1.98-.99-2.77l-.74-.66,11.54-5.82c3.51,5.51.92,12.48-6.86,16.61-9.85,5.24-23.65,4.04-30.08-2.54-3-3.06-3.87-6.77-2.53-10.43,1.29-3.55,4.51-6.63,9.03-8.72,4.52-2.1,9.88-2.92,14.89-2.54,3.34.26,6.56,1.05,9.3,2.38l-11.43,5.56Zm19.67-46.53c-.71-.47-1.74-.77-2.89-.85-1.15-.07-2.29.1-3.22.47l-8.5,3.41c-.97.39-1.62.95-1.82,1.58-.2.64.07,1.27.76,1.78.7.51,1.74.84,2.94.92,1.19.08,2.39-.1,3.37-.51l.83-.34,7.2,5.14c-7.18,1.69-15.65.52-20.11-2.86-2.55-1.94-3.46-4.31-2.6-6.65.83-2.29,3.25-4.28,6.78-5.64,3.48-1.34,7.68-1.93,11.88-1.67,4.22.26,7.99,1.34,10.66,3.08,4.63,3.01,4.81,7.47.39,10.73l-7.27-5,.81-.33c.94-.39,1.53-.94,1.68-1.56.14-.61-.17-1.22-.89-1.7Zm-5.8,3.32l-2.09.86-1.22.49-2.05.84c-.31.13-.7.19-1.08.16-.39-.02-.73-.13-.95-.29-.23-.16-.32-.37-.26-.57.07-.21.27-.39.59-.52l8.53-3.46c.3-.12.67-.17,1.05-.15.37.02.71.12.94.28.23.16.33.35.28.55-.05.2-.25.38-.55.5l-2,.82-1.19.49Zm21.18,23.41c.53-3.77,6.06-6.38,12.37-5.95,6.33.44,11.4,3.82,11.27,7.64-.13,3.97-5.75,6.89-12.5,6.39-6.72-.5-11.7-4.18-11.14-8.08Zm45.87-21.18c-.02-.21.12-.39.38-.52.27-.13.63-.18,1.03-.16.39.03.76.13,1.05.29l8.25,4.64c.3.17.49.39.51.61.03.21-.1.41-.37.55-.26.13-.63.19-1.04.17-.41-.03-.8-.14-1.1-.32l-1.99-1.12-1.17-.67-2.01-1.15-1.15-.65-1.92-1.09c-.29-.17-.46-.37-.47-.58Zm5.79,5.87l.81.46c.94.54,2.16.89,3.42.97s2.42-.11,3.24-.53c.83-.43,1.22-1.03,1.13-1.71-.1-.67-.68-1.33-1.62-1.85l-8.25-4.59c-.89-.5-2.05-.82-3.25-.89-1.2-.08-2.31.09-3.13.48-.82.4-1.25.96-1.21,1.6.04.64.55,1.27,1.44,1.79l.77.44-8.34,4.06c-3.91-3.86-2.93-8.29,2.32-10.73,3.04-1.4,7.11-2.02,11.52-1.75,4.41.27,8.7,1.41,12.11,3.23,3.48,1.85,5.68,4.21,6.14,6.67.48,2.51-.92,4.81-3.98,6.44-3.18,1.69-7.72,2.37-12.41,2.05-3.11-.21-6.26-.86-9.07-1.93l8.36-4.21Zm1.18,48.14l1.3-.81,2.24-1.4,1.28-.8,2.13-1.34c.32-.2.77-.29,1.26-.25.5.04.98.2,1.36.46.38.26.62.58.66.91.04.33-.11.63-.44.83l-9.16,5.82c-.34.22-.8.31-1.31.27-.52-.04-1.01-.22-1.39-.49-.37-.27-.6-.62-.62-.96-.03-.34.14-.65.48-.86l2.21-1.38Zm-15.07-9.01l10.85,7.75-.9.55c-1.04.64-1.59,1.58-1.52,2.63.06,1.06.73,2.11,1.9,2.97,1.17.86,2.69,1.41,4.28,1.54,1.6.13,3.05-.17,4.1-.85l9.17-5.92c.99-.64,1.46-1.56,1.31-2.58-.15-1.01-.88-2-2.06-2.79-1.17-.78-2.64-1.28-4.15-1.4s-2.89.15-3.88.77l-.86.52-10.88-7.47c7.67-2.27,18.06-.7,25.36,4.06,4.44,2.89,7.33,6.6,8.07,10.48.75,4-.87,7.68-4.66,10.29-4,2.77-9.71,3.85-15.63,3.34-5.9-.5-11.88-2.58-16.44-6.04-7.23-5.49-8.63-12.89-4.06-17.85Zm-2.37-51.66c8.07-3.67,21.44-2.86,30.5,1.89,9.53,4.99,11.27,12.71,3.13,17.14-7.36,4-20.02,3.79-29.57-.35l1.55-.79c3.47,1.44,7.5,2.36,11.59,2.64.52.03,1.04.06,1.57.07,5.14.14,9.82-.77,13.13-2.55,3.61-1.95,5.22-4.69,4.61-7.67-.59-2.89-3.22-5.67-7.33-7.84-4.02-2.12-9.06-3.44-14.23-3.76-.8-.05-1.59-.07-2.37-.07-4.24,0-8.12.72-11.14,2.11-3.26,1.49-5.27,3.67-5.61,6.16-.31,2.29.8,4.7,3.17,6.88l-1.55.76c-5.89-5.23-4.72-11.32,2.55-14.62Zm-76.53,11.61c-6.73-5.23-3.86-12.36,5.72-15.99,9.22-3.5,22-2.73,29.1,1.8,6.46,4.11,6.55,10.23-.05,14.58l-1.35-.93c2.65-1.82,4.14-4.05,4.23-6.32.09-2.48-1.47-4.85-4.36-6.71-3.15-2.02-7.58-3.29-12.52-3.59-4.92-.3-9.85.39-13.94,1.95-4.16,1.59-7.03,3.92-8.05,6.61-1.06,2.77-.03,5.57,2.97,7.88,2.76,2.12,6.95,3.6,11.77,4.14.49.05.99.09,1.48.13,3.89.26,7.86-.1,11.4-1.03l1.34.96c-9.75,2.75-21.61,1.29-27.74-3.48Zm20.86,55.97c-12.99,7.06-31.34,5.45-39.69-3.39-7.8-8.26-3.35-19.34,8.92-24.92,10.2-4.63,23.46-4.39,32.33.42l-1.96.96c-3.75-1.96-8.41-3.1-13.34-3.24-5.48-.17-11.04.91-15.73,3.05-5.32,2.44-9.15,6.04-10.74,10.2-1.64,4.32-.68,8.73,2.82,12.39,3.73,3.89,9.71,6.24,16.3,6.81,6.63.58,13.69-.65,19.47-3.77,4.92-2.65,8.23-6.33,9.38-10.32,1-3.47.3-6.96-1.89-9.95l1.98-1c5.74,7.29,2.88,16.93-7.85,22.76Zm99.72,8.52c-10.6,7.55-30.21,5.82-42.34-3.61-9.86-7.68-11.05-17.76-3.94-24.12l1.84,1.31c-2.76,2.64-4.09,6.02-3.7,9.65.46,4.18,3.17,8.44,7.72,11.94,5.4,4.15,12.5,6.66,19.54,7.27,7.08.61,13.89-.7,18.61-4.02,4.47-3.14,6.33-7.53,5.36-12.28-.94-4.58-4.4-8.93-9.66-12.31-4.6-2.96-10.3-4.94-16.1-5.64-5.17-.63-10.21-.21-14.42,1.18l-1.85-1.26c10.02-3.49,23.98-1.67,33.98,4.71,12.22,7.79,14.99,20.04,4.96,27.18Z"/>
    </g>
    <g>
      <path d="m1205.51,86.81c.45,0,.9.02,1.36.05,6.33.44,11.4,3.82,11.27,7.64-.12,3.67-4.94,6.45-11,6.45-.49,0-.99-.02-1.5-.06-6.72-.5-11.7-4.18-11.14-8.08.49-3.5,5.29-6,11.01-6m1.36,12c4.3,0,7.73-1.95,7.86-4.55.13-2.74-3.48-5.18-8.04-5.5-.34-.02-.67-.04-.99-.04-4.11,0-7.53,1.82-7.86,4.33-.35,2.77,3.22,5.37,7.97,5.72.36.03.71.04,1.06.04m-1.36-15c-7.52,0-13.28,3.53-13.99,8.58-.3,2.11.32,4.2,1.81,6.05,2.43,3.02,6.94,5.05,12.08,5.44.57.04,1.15.06,1.72.06,7.93,0,13.82-3.93,14-9.35.19-5.55-5.86-10.16-14.06-10.73-.52-.04-1.05-.05-1.56-.05h0Zm1.36,12c-.28,0-.56-.01-.84-.03-3.37-.25-5.19-1.85-5.21-2.35.05-.39,1.67-1.7,4.88-1.7.26,0,.52,0,.78.03,3.39.24,5.28,1.89,5.25,2.37-.02.33-1.62,1.69-4.86,1.69h0Z"/>
      <path class="cls-2" d="m1206.87,86.86c-6.31-.43-11.84,2.18-12.37,5.95-.56,3.9,4.42,7.58,11.14,8.08,6.75.5,12.37-2.42,12.5-6.39.13-3.82-4.94-7.2-11.27-7.64Zm-1.05,11.91c-4.75-.35-8.32-2.95-7.97-5.72.35-2.71,4.31-4.61,8.85-4.29,4.56.32,8.17,2.76,8.04,5.5-.14,2.81-4.14,4.86-8.92,4.51Z"/>
    </g>
  </g>
</svg>
