<?xml version="1.0" encoding="UTF-8"?>
<svg xmlns="http://www.w3.org/2000/svg" id="Layer_1" data-name="Layer 1" viewBox="0 0 120 120">
  <defs>
    <style>
      .cls-1 {
        fill: #fdc700;
      }

      .cls-2, .cls-3, .cls-4 {
        fill: #e6b400;
      }

      .cls-2, .cls-4 {
        fill-rule: evenodd;
      }

      .cls-5 {
        fill: #005ba3;
      }

      .cls-5, .cls-3, .cls-4 {
        stroke: #000;
        stroke-miterlimit: 10;
        stroke-width: .7px;
      }
    </style>
  </defs>
  <path class="cls-5" d="m80.63,74.24c-.99-12.95-6.69-19.89-18.98-27.98-6.66-4.53-11.78-7.81-11.69-12.95.08-4.39,2.98-8.98,11.44-8.98,3.43,0,6.62.41,9.7,1.42.1-.98.9-1.86,1.23-2.77.5-1.35.79-2.83,1.02-4.25.2-1.21.35-2.8.87-4.12-3.17-1-7.2-1.67-11.93-1.67-16.13,0-24.26,10.37-24.92,21.21-.72,11.71,4.86,17.86,16.13,25.7,7.3,5.25,11.64,9.3,11.85,16.29.21,6.96-3.5,14.55-13.78,14.55-7.74,0-14.32.23-20.66.23l-11.03,17.37c8.69,0,18.98.02,29.83.02,21.98,0,32.1-16.92,30.92-34.07Z"/>
  <g>
    <g>
      <polyline class="cls-4" points="79.25 15.57 90.95 12.64 101 23.32 95.7 22.03 89.95 17.06 77.84 21.41"/>
      <polyline class="cls-4" points="76.4 27.24 85.45 35.2 99.28 30.32 93.98 29.03 86.58 30.81 77.82 21.39"/>
    </g>
    <circle class="cls-3" cx="77.19" cy="21.25" r="6.27"/>
    <rect class="cls-3" x="69.15" y="13.97" width="4.81" height="11.75" transform="translate(6.7 -16.31) rotate(13.64)"/>
  </g>
  <path class="cls-1" d="m66.53,19.03c-.85-.1-1.74-.17-2.64-.21v-.54c.91.04,1.81.11,2.68.21l-.04.54Zm-24.45,78.89c-1.12-.27-2.24-.59-3.32-.96l.21-.86c1.07.37,2.16.68,3.26.95l-.15.88Zm23.43-3.67l-.37-.76c.94-.74,1.82-1.58,2.6-2.49l.46.66c-.81.94-1.72,1.82-2.7,2.59Zm7.53-13.32l-.64-.21c.21-1.26.32-2.57.33-3.89l.65.06c-.01,1.37-.13,2.73-.34,4.04Zm-2.65-15.04c-.52-1.01-1.14-2.01-1.85-2.97l.45-.47c.74.99,1.39,2.03,1.93,3.08l-.53.36Zm-8.93-9.86c-.79-.61-1.62-1.22-2.55-1.88l.31-.59c.93.66,1.77,1.28,2.56,1.89l-.33.58Zm-10.08-7.36c-.86-.71-1.62-1.38-2.31-2.04l.39-.5c.68.65,1.42,1.31,2.27,2l-.35.54Zm-7.36-9.73c-.3-.98-.49-2.01-.58-3.06l.56-.08c.09,1.01.27,1.99.56,2.92l-.54.22Zm1.56-11.65l-.48-.25c.44-.87.96-1.7,1.56-2.46l.42.35c-.57.73-1.07,1.53-1.49,2.37Zm7.94-7.1l-.19-.51c.82-.32,1.68-.59,2.58-.8l.12.53c-.87.21-1.72.47-2.51.78Z"/>
  <g>
    <path class="cls-2" d="m37.23,90.68h-.6c.07,0,.14,0,.21,0,.15,0,.28,0,.39,0Z"/>
    <g>
      <g>
        <path class="cls-2" d="m32.94,104.11c-.15-1.96-1.81-3.5-3.78-3.5-1.85.02-3.4,1.32-3.73,3.09l-.06.31-3.94-.24c-.59-.03-1.15-.29-1.51-.69-.29-.32-.43-.71-.4-1.13l.3-5.07c.06-1.09,1.05-1.55,1.78-1.81,2.86-.98,4.91-2.13,6.71-3.14,2.27-1.28,4.25-2.39,7.1-2.77v-.45c0-.3.1-.58.31-.8.21-.21.49-.33.79-.33h.65s.26-1.14.26-1.14h.05s-.01-1.08-.01-1.08h-.16s-.02-1.03-.02-1.03l3.13-.04.02,1.03h-.16s.01,1.07.01,1.07h.06s.27,1.13.27,1.13h.67c.63,0,1.13.49,1.13,1.09v.86c.27.05.54.1.81.15,1.29.25,3.18,1.16,3.86,1.57l5.62,3.38c.92.18,1.71.36,2.5.53l.33.07c.47.11.92.2,1.35.29,3.42.7,6.12,1.26,6.18,6.01v.74c.02,1-.83,1.83-1.88,1.85l-3.61.05-.04-.31c-.23-1.9-1.85-3.33-3.77-3.33-1.99.03-3.6,1.5-3.78,3.43l-.03.31-17,.23-.02-.33Zm7.07-13.02c-.28,0-.33.05-.33.06,0,0-.05.05-.02.31l.38,3.29q.06.51.44.52l8.12.21c.09,0,.13-.02.15-.06.03-.07,0-.22-.16-.38-2.62-2.46-5.19-3.67-8.32-3.94-.1,0-.19-.01-.27-.01Zm-3.16-.06h-.19c-3.29.19-6.07,2-7.83,3.48-.28.23-.3.38-.29.4,0,0,.07.07.27.08l8.69.2c.33,0,.42-.05.45-.08.03-.03.05-.14.03-.33l-.38-3.13q-.07-.6-.39-.62c-.06,0-.12,0-.18,0h-.18Z"/>
        <path d="m40.08,84.66v.32s-.15,0-.15,0l.02,1.78h.13s.27,1.13.27,1.13h.95s0-.01.01-.01c.41,0,.76.34.76.75l.02,1.16c.35.06.71.12,1.08.2,1.24.24,3.12,1.14,3.75,1.52l5.67,3.41c1.07.2,1.96.41,2.88.62,4.2.94,7.19.93,7.26,5.95v.73c.02.81-.68,1.48-1.54,1.49l-3.3.04c-.25-2.06-2-3.64-4.12-3.64-.02,0-.04,0-.06,0-2.14.03-3.88,1.67-4.07,3.75l-16.36.22c-.16-2.14-1.96-3.83-4.13-3.83-.02,0-.04,0-.06,0-2.01.03-3.66,1.48-4.02,3.38l-3.63-.22c-.85-.05-1.63-.64-1.58-1.45l.3-5.07c.05-.81.74-1.22,1.54-1.49,6.59-2.26,8.78-5.34,14.05-5.94v-.76c-.01-.42.32-.77.75-.77h.85s.07-.01.07-.01l.27-1.14h.12s-.02-1.78-.02-1.78h-.16s0-.32,0-.32l2.43-.03m-2.57,10.89c.57,0,.91-.12.83-.8l-.38-3.13c-.08-.62-.1-.89-.71-.93,0,0,0,0-.01,0-.06,0-.13,0-.2,0-.06,0-.12,0-.19,0-.07,0-.14,0-.21.01-2.92.16-5.72,1.61-8.02,3.55-.69.58-.46,1.08.2,1.1l8.57.2s.08,0,.13,0m11.11.28c.55,0,.68-.61.22-1.04-2.56-2.4-5.21-3.75-8.53-4.04-.11,0-.21-.01-.3-.01-.59,0-.76.21-.7.76l.38,3.29c.07.58.13.81.79.83l8.12.21s.01,0,.02,0m-7.85-11.89h-.7s-2.43.04-2.43.04h-.7s.01.71.01.71v.32s.01.7.01.7h.16s0,.47,0,.47l-.1.43-.14.6h-.37c-.81.01-1.46.68-1.45,1.49v.14c-2.76.43-4.7,1.52-6.92,2.77-1.79,1.01-3.82,2.15-6.65,3.12-.48.16-1.93.67-2.02,2.12l-.3,5.07c-.03.5.14.99.49,1.38.42.48,1.06.77,1.75.81l3.63.22.62.04.11-.61c.3-1.6,1.7-2.78,3.33-2.8h0c1.84,0,3.34,1.39,3.48,3.17l.05.66h.66s16.36-.23,16.36-.23h.63s.06-.64.06-.64c.16-1.75,1.62-3.09,3.38-3.11h0c1.79,0,3.25,1.3,3.46,3.02l.08.63h.63s3.3-.05,3.3-.05c1.25-.02,2.25-1.01,2.24-2.21v-.74c-.08-5.03-3.04-5.64-6.47-6.35-.43-.09-.88-.18-1.35-.29l-.28-.06c-.78-.18-1.58-.36-2.5-.53l-5.57-3.34c-.7-.42-2.64-1.35-3.98-1.61-.17-.03-.35-.07-.52-.1v-.57c-.01-.8-.67-1.45-1.47-1.45h-.41s-.14-.58-.14-.58l-.12-.48v-.44s.15,0,.15,0v-.7s-.01-.32-.01-.32v-.7h-.01Zm-11.56,10.71c1.72-1.42,4.37-3.09,7.45-3.26.08,0,.14,0,.19-.01.06,0,.12,0,.17,0,.02,0,.05,0,.07,0h.01s.09,0,.09,0c0,0,0,0,0,0,.01.08.03.2.04.3l.38,3.14s0,0,0,.01c-.03,0-.08,0-.13,0h-.11s-8.18-.19-8.18-.19h0Zm11.2.26c-.01-.08-.02-.16-.03-.2l-.38-3.26c.07,0,.15,0,.23.01,2.96.26,5.41,1.39,7.9,3.66l-7.66-.2s-.06,0-.08,0h0Z"/>
      </g>
      <g>
        <path class="cls-2" d="m29.16,108.03c-1.97,0-3.59-1.6-3.62-3.57,0-.28.02-.56.09-.84.37-1.64,1.8-2.81,3.49-2.83h0c1.92,0,3.46,1.4,3.65,3.26.01.1.02.21.02.32.03,2-1.58,3.64-3.57,3.67h-.05Zm-.02-4.96c-.55,0-1.03.34-1.23.85-.06.16-.09.33-.09.51,0,.73.61,1.33,1.34,1.33.76-.01,1.35-.62,1.34-1.36,0-.11-.02-.22-.04-.32-.15-.59-.69-1.01-1.3-1.01v-.35l-.02.35Z"/>
        <path d="m29.16,101.14c1.69,0,3.08,1.28,3.25,2.94.01.09.01.19.02.29.02,1.8-1.42,3.29-3.22,3.31-.01,0-.03,0-.04,0-1.78,0-3.24-1.44-3.27-3.22,0-.26.02-.51.08-.76.32-1.45,1.6-2.53,3.15-2.56.02,0,.03,0,.04,0m0,4.96s.02,0,.02,0c.94-.01,1.68-.78,1.67-1.72,0-.14-.02-.27-.05-.4-.19-.73-.85-1.27-1.64-1.27,0,0-.02,0-.02,0-.71,0-1.31.45-1.56,1.08-.08.2-.12.41-.12.64.01.93.77,1.67,1.69,1.67m0-5.67h-.05c-1.85.03-3.42,1.3-3.82,3.11-.07.3-.1.61-.09.92.03,2.16,1.81,3.92,3.97,3.92h.05c1.06-.01,2.05-.44,2.79-1.2.74-.76,1.14-1.76,1.13-2.82,0-.12,0-.24-.02-.35-.2-2.03-1.9-3.57-3.95-3.57h0Zm0,5.67v-.7c-.54,0-.98-.44-.99-.98,0-.13.02-.26.07-.37.15-.38.5-.63.91-.63h0c.47,0,.86.3.97.74.02.08.03.15.03.24,0,.55-.43,1-.98,1v.7h-.01Z"/>
      </g>
      <g>
        <path class="cls-2" d="m53.78,107.88c-1.97,0-3.59-1.6-3.62-3.57,0-.17,0-.34.03-.5.22-1.78,1.75-3.15,3.54-3.17h0c1.82,0,3.36,1.32,3.63,3.07.02.17.04.33.04.5.01.97-.35,1.88-1.03,2.57-.67.69-1.58,1.08-2.55,1.09h-.05Zm-.02-4.96c-.6,0-1.13.42-1.28,1-.03.12-.04.24-.04.36,0,.73.61,1.33,1.34,1.33.76-.01,1.35-.62,1.34-1.36,0-.12-.02-.24-.05-.36-.17-.57-.7-.97-1.29-.97v-.35l-.02.35Z"/>
        <path d="m53.78,100.99c1.63,0,2.99,1.2,3.23,2.77.02.15.03.3.04.45.02,1.8-1.42,3.29-3.22,3.31-.02,0-.03,0-.04,0-1.78,0-3.24-1.43-3.27-3.22,0-.15,0-.3.02-.45.2-1.59,1.55-2.84,3.2-2.86.02,0,.03,0,.04,0m0,4.96s.02,0,.02,0c.94-.01,1.68-.78,1.67-1.72,0-.16-.03-.31-.07-.45-.21-.71-.86-1.22-1.63-1.22,0,0-.02,0-.02,0-.78.01-1.43.55-1.62,1.27-.04.14-.06.3-.05.45.01.93.77,1.67,1.7,1.67m0-5.67h-.05c-1.97.03-3.65,1.52-3.89,3.48-.02.19-.03.37-.03.55.03,2.16,1.81,3.92,3.97,3.92h.05c1.06-.01,2.05-.44,2.79-1.2.74-.76,1.14-1.76,1.13-2.82,0-.18-.02-.36-.04-.54-.29-1.93-1.98-3.38-3.93-3.38h0Zm0,5.67v-.7c-.54,0-.98-.44-.99-.98,0-.09,0-.18.03-.26.11-.43.5-.73.95-.74h0c.45,0,.84.29.96.71.02.08.04.17.04.26,0,.55-.43,1-.98,1v.7h-.01Z"/>
      </g>
    </g>
  </g>
</svg>
