<?xml version="1.0" encoding="UTF-8"?>
<svg id="Layer_1" data-name="Layer 1" xmlns="http://www.w3.org/2000/svg" viewBox="0 0 391.8 392.14">
  <defs>
    <style>
      .cls-1 {
        fill: #007ad9;
      }

      .cls-1, .cls-2 {
        stroke-width: 8px;
      }

      .cls-1, .cls-2, .cls-3, .cls-4 {
        stroke-miterlimit: 10;
      }

      .cls-1, .cls-3, .cls-4 {
        stroke: #000;
      }

      .cls-2 {
        fill: none;
        stroke: #fdc700;
        stroke-dasharray: 0 0 15 45;
      }

      .cls-3, .cls-5 {
        fill-rule: evenodd;
      }

      .cls-3, .cls-5, .cls-4 {
        fill: #fdc700;
      }

      .cls-3, .cls-4 {
        stroke-width: 3.78px;
      }
    </style>
  </defs>
  <path class="cls-1" d="m256.83,90.64h-95.36c-21.5,0-32.5,6-37,29-1,5.5-2,12.5-2,17.5,0,10.5,5.5,19.5,24,26l114.5,40.5c39,13.5,60,35.5,60,73.5,0,8,0,16.5-1.5,26-8,52-35.5,85-94.5,85H4.97l11.5-52.5h194c31.5,0,38.5-20.5,41-32,1-5,2-11.5,2-16,0-10.5-6.5-20-27.5-27.5l-124-43.5c-33-11.5-47-37-47-69.5,0-9,0-19,1.5-29.5,8-50.5,33-79.5,98.5-79.5h101.86v52.5Z"/>
  <path class="cls-2" d="m10.72,361.89h207c45.25,0,62.5-26.75,67.75-58.5,1.25-7.25,1.75-14.75,1.75-21,0-24.25-13.75-40-43.75-50.5l-119.25-42c-25.75-9-35.5-26.25-35.5-47.75,0-7,.5-15.5,1.75-23.5,6.25-36.75,24.25-54.25,67.75-54.25h106.11"/>
  <g>
    <g>
      <polyline class="cls-3" points="262.15 32.3 319.5 2.19 385.44 45.2 356.17 45.2 319.84 26.56 262.15 64.6"/>
      <polyline class="cls-3" points="262.02 96.81 319.36 126.92 385.31 83.91 356.03 83.91 319.7 102.54 262.02 64.5"/>
    </g>
    <circle class="cls-4" cx="258.57" cy="64.55" r="33.69"/>
    <rect class="cls-4" x="214.5" y="32.84" width="25.81" height="63.08"/>
  </g>
  <g>
    <path class="cls-5" d="m95.6,305.96l-2.86.04c.34-.02.66-.04,1-.06.73-.02,1.33-.02,1.86.01Z"/>
    <g>
      <g>
        <path class="cls-5" d="m75.16,370.07c-.71-9.37-8.64-16.7-18.04-16.7h-.26c-8.59.11-15.97,6.32-17.54,14.75l-.27,1.46-18.8-1.12c-2.81-.16-5.51-1.4-7.2-3.31-1.37-1.55-2.04-3.41-1.92-5.39l1.43-24.19c.3-5.21,4.99-7.41,8.49-8.62,13.66-4.68,23.42-10.16,32.02-15,10.84-6.1,20.26-11.4,33.9-13.22l-.03-2.13c-.03-2.95,2.33-5.37,5.27-5.4l3.1-.04,1.26-5.42h.24s-.05-5.13-.05-5.13h-.76s-.07-4.9-.07-4.9l14.94-.2.07,4.9h-.75s.05,5.14.05,5.14h.27s1.31,5.39,1.31,5.39c0,0,3.19-.04,3.19-.04,2.99,0,5.37,2.36,5.39,5.27l.06,4.1c1.23.22,2.5.45,3.81.71,6.16,1.2,15.19,5.53,18.44,7.47l26.82,16.12c4.46.86,8.34,1.74,12.1,2.59l1.4.32c2.22.5,4.38.94,6.45,1.37,16.31,3.36,29.2,6.02,29.51,28.66l.04,3.51c.06,4.79-3.99,8.75-9.03,8.83l-17.25.22-.18-1.5c-1.1-9.06-8.83-15.89-17.98-15.89h-.24c-9.27.13-16.92,7.18-17.78,16.38l-.14,1.5-81.14,1.08-.12-1.58Zm33.72-62.16c-1.33,0-1.58.26-1.58.27,0,0-.22.26-.07,1.5l1.8,15.69q.28,2.43,2.12,2.47s38.77,1.02,38.77,1.02c.59,0,.67-.21.7-.28.12-.31.02-1.05-.77-1.79-12.51-11.72-24.76-17.52-39.7-18.81-.46-.04-.89-.06-1.27-.06Zm-14.22-.31c-.26,0-.55,0-.86.01-.27,0-.54.03-.81.04h-.13c-15.64.88-28.92,9.5-37.31,16.58-1.32,1.12-1.43,1.83-1.39,1.93.02.04.34.35,1.3.37l40.91.96c.19,0,.38,0,.56,0,1.58,0,2.02-.24,2.15-.38.14-.16.25-.66.14-1.58l-1.82-14.95c-.34-2.82-.35-2.86-1.78-2.97h-.2l-.08-.02c-.21,0-.43-.01-.67-.01Z"/>
        <path d="m109.2,277.21l.02,1.55h-.74s.09,8.5.09,8.5h.62s1.31,5.38,1.31,5.38l4.53-.06s.04,0,.06,0c1.98,0,3.61,1.6,3.62,3.6l.08,5.51c1.66.28,3.37.59,5.14.94,5.93,1.15,14.88,5.46,17.89,7.26l27.07,16.27c5.1.97,9.37,1.96,13.74,2.95,20.02,4.5,34.32,4.45,34.65,28.42l.04,3.51c.04,3.84-3.28,7.06-7.37,7.13l-15.73.2c-1.19-9.82-9.57-17.37-19.65-17.37-.09,0-.18,0-.27,0-10.21.15-18.5,7.97-19.43,17.91l-78.05,1.04c-.78-10.23-9.34-18.26-19.72-18.26-.09,0-.19,0-.28,0-9.58.12-17.48,7.05-19.17,16.12l-17.32-1.03c-4.08-.24-7.78-3.06-7.54-6.92l1.43-24.19c.22-3.87,3.52-5.8,7.36-7.13,31.46-10.77,41.91-25.5,67.07-28.33l-.04-3.63c-.02-2.02,1.59-3.68,3.61-3.7l4.07-.06h.35l1.27-5.43h.59s-.09-8.49-.09-8.49h-.76s-.02-1.54-.02-1.54l11.57-.16m-12.29,51.99c2.72,0,4.35-.59,3.95-3.84l-1.82-14.95c-.36-2.97-.49-4.22-3.38-4.45-.02,0-.03,0-.07-.01-.29-.02-.6-.03-.95-.03-.28,0-.58,0-.91.02-.34.01-.66.03-1,.06-13.94.77-27.28,7.68-38.29,16.96-3.27,2.77-2.21,5.18.94,5.27l40.92.96c.21,0,.4,0,.6,0m53.04,1.34c2.64,0,3.24-2.92,1.04-4.98-12.24-11.46-24.86-17.89-40.71-19.26-.52-.04-.99-.07-1.42-.07-2.81,0-3.63.98-3.32,3.64l1.8,15.69c.32,2.77.63,3.89,3.75,3.96l38.76,1.02s.06,0,.09,0m-37.44-56.73l-3.36.05-11.57.16-3.36.05.05,3.36.02,1.55.05,3.36h.75s.02,2.26.02,2.26l-.48,2.04-.67,2.87-1.79.02c-3.86.04-6.97,3.23-6.92,7.1v.65c-13.15,2.03-22.41,7.24-33.02,13.21-8.54,4.8-18.22,10.25-31.74,14.88-2.29.79-9.23,3.17-9.63,10.11l-1.43,24.19c-.15,2.4.68,4.74,2.34,6.61,2.02,2.27,5.07,3.68,8.37,3.87l17.32,1.03,2.96.18.54-2.92c1.43-7.65,8.12-13.28,15.91-13.38h.24c8.53,0,15.72,6.65,16.37,15.15l.24,3.15,3.16-.04,78.05-1.04,3.02-.04.28-3.01c.78-8.35,7.72-14.74,16.13-14.86h.22c8.3,0,15.31,6.19,16.31,14.41l.36,3,3.02-.04,15.73-.2c5.97-.1,10.76-4.82,10.69-10.53l-.04-3.51c-.33-24-14.47-26.91-30.85-30.29-2.07-.43-4.21-.87-6.42-1.36l-1.35-.3c-3.7-.84-7.53-1.7-11.91-2.55l-26.56-15.96c-3.34-2-12.62-6.44-18.98-7.68-.83-.16-1.65-.32-2.46-.47l-.04-2.73c-.02-3.8-3.16-6.91-6.99-6.91h-.12s-1.84.02-1.84.02l-.68-2.79-.55-2.27-.02-2.1h.75s-.05-3.37-.05-3.37l-.02-1.55-.05-3.36h0Zm-55.15,51.11c8.22-6.79,20.85-14.74,35.57-15.56h.1c.28-.02.54-.04.82-.05.28,0,.55-.01.8-.01.21,0,.4,0,.58.01.08,0,.15.02.23.02.02,0,.04,0,.05,0,.07.4.14.96.19,1.44v.05s1.82,14.95,1.82,14.95c0,.02,0,.04,0,.06-.17,0-.37.02-.62.02-.17,0-.34,0-.51,0l-39.04-.92h0Zm53.46,1.23c-.06-.36-.11-.78-.13-.97l-1.79-15.57c.32,0,.69.02,1.11.05,14.15,1.22,25.83,6.62,37.72,17.47l-36.53-.96c-.14,0-.27,0-.37-.02h0Z"/>
      </g>
      <g>
        <path class="cls-5" d="m57.1,388.76c-9.4,0-17.15-7.65-17.28-17.05-.02-1.34.12-2.68.41-4,1.75-7.85,8.59-13.41,16.64-13.51h.24c8.91,0,16.3,6.68,17.19,15.54.05.45.08.95.08,1.51.13,9.53-7.52,17.38-17.04,17.51h-.24Zm-.08-23.69c-2.62.04-4.93,1.63-5.88,4.07-.3.77-.45,1.58-.44,2.42.05,3.49,2.92,6.32,6.41,6.32,3.62-.05,6.46-2.96,6.41-6.49,0-.52-.07-1.03-.2-1.52-.73-2.83-3.28-4.8-6.2-4.8h-.09Z"/>
        <path d="m57.11,355.88c8.05,0,14.72,6.13,15.51,14.03.05.45.07.9.08,1.36.12,8.61-6.77,15.69-15.38,15.81-.07,0-.14,0-.21,0-8.51,0-15.48-6.85-15.59-15.39-.02-1.24.11-2.45.37-3.61,1.54-6.9,7.65-12.1,15.02-12.2.07,0,.14,0,.21,0m0,23.69s.07,0,.11,0c4.47-.06,8.04-3.73,7.98-8.2,0-.67-.1-1.31-.26-1.92-.9-3.49-4.07-6.06-7.83-6.06-.04,0-.07,0-.11,0-3.39.05-6.27,2.17-7.43,5.14-.37.94-.57,1.97-.55,3.05.06,4.43,3.66,7.98,8.08,7.98m0-27.05h-.26c-8.83.12-16.33,6.22-18.25,14.83-.32,1.44-.47,2.92-.45,4.39.14,10.31,8.64,18.71,18.96,18.71h.26c5.06-.07,9.8-2.11,13.33-5.74,3.53-3.63,5.44-8.42,5.37-13.48,0-.61-.04-1.16-.1-1.68-.97-9.7-9.08-17.03-18.85-17.03h0Zm0,23.69c-2.57,0-4.69-2.09-4.72-4.66,0-.62.1-1.22.32-1.78.7-1.8,2.41-2.98,4.34-3.01h.07c2.15,0,4.03,1.45,4.57,3.54.09.36.14.74.15,1.12.04,2.61-2.06,4.75-4.66,4.79h-.07Z"/>
      </g>
      <g>
        <path class="cls-5" d="m174.58,388.06c-9.4,0-17.15-7.65-17.28-17.04-.01-.77.03-1.57.13-2.38,1.06-8.52,8.33-15.02,16.92-15.14h.24c8.47,0,15.81,6.31,17.07,14.67.12.8.18,1.6.19,2.38.13,9.53-7.52,17.38-17.04,17.51h-.24Zm-.08-23.68c-2.88.04-5.39,2.01-6.12,4.79-.14.55-.21,1.13-.21,1.71.05,3.49,2.92,6.32,6.41,6.32,1.8-.02,3.4-.71,4.59-1.94s1.84-2.84,1.82-4.56c0-.58-.09-1.15-.25-1.7-.79-2.72-3.32-4.62-6.15-4.62h-.09Z"/>
        <path d="m174.59,355.19c7.79,0,14.28,5.73,15.41,13.24.1.7.17,1.42.18,2.15.12,8.61-6.77,15.69-15.38,15.8-.07,0-.14,0-.21,0-8.52,0-15.48-6.84-15.59-15.38,0-.73.03-1.45.12-2.15.95-7.61,7.38-13.55,15.27-13.66.07,0,.14,0,.21,0m0,23.69s.07,0,.11,0c4.47-.06,8.04-3.73,7.98-8.2-.01-.74-.12-1.46-.32-2.15-.98-3.38-4.09-5.83-7.77-5.83-.04,0-.07,0-.11,0-3.73.05-6.83,2.61-7.72,6.04-.18.69-.27,1.41-.26,2.15.06,4.43,3.67,7.98,8.09,7.98m0-27.05h-.26c-9.42.13-17.4,7.27-18.56,16.61-.11.89-.15,1.76-.14,2.61.14,10.31,8.64,18.7,18.95,18.7h.26c5.06-.07,9.8-2.11,13.33-5.73,3.53-3.63,5.44-8.41,5.37-13.48-.01-.85-.08-1.72-.21-2.59-1.39-9.19-9.44-16.11-18.74-16.11h0Zm0,23.69c-2.57,0-4.69-2.09-4.73-4.66,0-.43.05-.85.15-1.26.54-2.05,2.39-3.5,4.52-3.53h.07c2.09,0,3.96,1.4,4.54,3.41.12.4.18.82.18,1.25.04,2.61-2.06,4.75-4.66,4.79h-.07Z"/>
      </g>
    </g>
  </g>
</svg>